HIERARCHY
ROOT Hips
{
	OFFSET 0.000000 0.000000 0.000000
	CHANNELS 6 Xposition Yposition Zposition Xrotation Yrotation Zrotation
	JOINT LeftUpLeg_virtual
	{
		OFFSET 0.000000 0.000000 0.000000
		CHANNELS 3 Xrotation Yrotation Zrotation
		JOINT LeftUpLeg
		{
			OFFSET 10.205400 -3.823500 0.155100
			CHANNELS 3 Xrotation Yrotation Zrotation
			JOINT LeftLeg
			{
				OFFSET 0.708757 -12.982077 0.567790
				CHANNELS 3 Xrotation Yrotation Zrotation
				JOINT LeftFoot
				{
					OFFSET -0.708756 -10.717838 -2.184338
					CHANNELS 3 Xrotation Yrotation Zrotation
					JOINT LeftToeBase
					{
						OFFSET 0.108149 -7.191104 7.560241
						CHANNELS 3 Xrotation Yrotation Zrotation
						JOINT LeftToe_End
						{
							OFFSET 0.070230 0.081724 4.490308
							CHANNELS 3 Xrotation Yrotation Zrotation
							End Site
							{
								OFFSET 0 0 0
							}
						}
					}
				}
			}
		}
	}
	JOINT RightUpLeg_virtual
	{
		OFFSET 0.000000 0.000000 0.000000
		CHANNELS 3 Xrotation Yrotation Zrotation
		JOINT RightUpLeg
		{
			OFFSET -10.205400 -3.823500 0.005500
			CHANNELS 3 Xrotation Yrotation Zrotation
			JOINT RightLeg
			{
				OFFSET -0.708756 -12.982134 0.610632
				CHANNELS 3 Xrotation Yrotation Zrotation
				JOINT RightFoot
				{
					OFFSET 0.708754 -10.717769 -1.945823
					CHANNELS 3 Xrotation Yrotation Zrotation
					JOINT RightToeBase
					{
						OFFSET -0.108140 -7.191069 7.372968
						CHANNELS 3 Xrotation Yrotation Zrotation
						JOINT RightToe_End
						{
							OFFSET -0.070227 0.081735 4.479403
							CHANNELS 3 Xrotation Yrotation Zrotation
							End Site
							{
								OFFSET 0 0 0
							}
						}
					}
				}
			}
		}
	}
	JOINT Spine_virtual
	{
		OFFSET 0.000000 0.000000 0.000000
		CHANNELS 3 Xrotation Yrotation Zrotation
		JOINT Spine
		{
			OFFSET 0.000000 6.876099 0.125700
			CHANNELS 3 Xrotation Yrotation Zrotation
			JOINT Spine1
			{
				OFFSET 0.000000 5.730043 0.104720
				CHANNELS 3 Xrotation Yrotation Zrotation
				JOINT Spine1_split
				{
					OFFSET 0.000000 5.730043 0.104720
					CHANNELS 3 Xrotation Yrotation Zrotation
					JOINT Spine2
					{
						OFFSET 0.000000 5.730043 0.104720
						CHANNELS 3 Xrotation Yrotation Zrotation
						JOINT Neck_virtual
						{
							OFFSET 0.000000 0.000000 0.000000
							CHANNELS 3 Xrotation Yrotation Zrotation
							JOINT Neck
							{
								OFFSET 0.000000 10.314075 0.188496
								CHANNELS 3 Xrotation Yrotation Zrotation
								JOINT Head
								{
									OFFSET 0.000000 7.643700 -2.377400
									CHANNELS 3 Xrotation Yrotation Zrotation
									JOINT HeadTop_End
									{
										OFFSET 0.000000 43.788605 -13.619600
										CHANNELS 3 Xrotation Yrotation Zrotation
										End Site
										{
											OFFSET 0 0 0
										}
									}
								}
							}
						}
						JOINT LeftShoulder_virtual
						{
							OFFSET 0.000000 0.000000 0.000000
							CHANNELS 3 Xrotation Yrotation Zrotation
							JOINT LeftShoulder
							{
								OFFSET 2.196100 4.412489 0.087492
								CHANNELS 3 Xrotation Yrotation Zrotation
								JOINT LeftShoulder_split
								{
									OFFSET 2.196100 4.412489 0.087492
									CHANNELS 3 Xrotation Yrotation Zrotation
									JOINT LeftArm
									{
										OFFSET 8.771219 -2.981674 -0.026999
										CHANNELS 3 Xrotation Yrotation Zrotation
										JOINT LeftForeArm
										{
											OFFSET 8.512804 0.000000 -0.000000
											CHANNELS 3 Xrotation Yrotation Zrotation
											JOINT LeftHand
											{
												OFFSET 18.484802 0.000000 -0.000000
												CHANNELS 3 Xrotation Yrotation Zrotation
												End Site
												{
													OFFSET 0 0 0
												}
											}
										}
									}
								}
							}
						}
						JOINT RightShoulder_virtual
						{
							OFFSET 0.000000 0.000000 0.000000
							CHANNELS 3 Xrotation Yrotation Zrotation
							JOINT RightShoulder
							{
								OFFSET -2.196100 4.412496 0.070690
								CHANNELS 3 Xrotation Yrotation Zrotation
								JOINT RightShoulder_split
								{
									OFFSET -2.196100 4.412496 0.070690
									CHANNELS 3 Xrotation Yrotation Zrotation
									JOINT RightArm
									{
										OFFSET -8.771282 -2.981682 -0.094208
										CHANNELS 3 Xrotation Yrotation Zrotation
										JOINT RightForeArm
										{
											OFFSET -8.494598 0.000000 0.000000
											CHANNELS 3 Xrotation Yrotation Zrotation
											JOINT RightHand
											{
												OFFSET -18.483803 0.000000 0.000001
												CHANNELS 3 Xrotation Yrotation Zrotation
												End Site
												{
													OFFSET 0 0 0
												}
											}
										}
									}
								}
							}
						}
					}
				}
			}
		}
	}
}
MOTION
Frames: 4
Frame Time: 0.03333333
-1.510492 32.664318 -1.048716 0.000000 0.000000 0.000000 -0.902353 -43.292041 3.865934 -18.507205 8.225573 11.247480 17.418034 -7.161514 6.268750 -2.691402 -2.265337 -24.436370 -1.490254 1.553675 1.888516 0.000000 0.000000 0.000000 -2.136601 -42.480184 3.956236 -0.575099 -9.979910 -19.879667 18.207930 -10.816397 -14.023478 -13.763408 -8.631956 26.351587 -4.483387 -1.657220 -0.931500 0.000000 0.000000 0.000000 -1.269243 -44.963029 3.437976 7.325406 3.212781 -0.813869 0.212879 2.387503 -1.498951 1.133128 -1.619764 1.046460 0.000000 0.000000 0.000000 -0.662028 2.051935 -1.426499 -17.087484 -1.995057 19.232522 -1.629669 18.237694 -17.021096 0.000000 0.000000 0.000000 -0.228697 1.789240 -1.298428 -7.449777 -7.384781 -13.865680 -5.879673 -2.236340 -3.046908 4.477542 -4.541191 -30.078599 43.857577 -38.803121 17.352514 0.000000 0.000000 0.000000 -0.782844 1.739674 -1.086228 -1.927280 14.160533 -18.948695 -5.446375 3.266986 0.052436 -73.296235 10.914553 18.425882 -76.036104 34.107817 55.848807 0.000000 0.000000 0.000000 
-0.991961 32.464676 -1.098579 0.000000 0.000000 0.000000 -1.193803 -45.519861 3.894053 -19.650639 8.247521 11.726478 19.364151 -6.087287 5.208158 -4.041516 -1.600642 -23.121548 -0.960325 1.581488 1.743465 0.000000 0.000000 0.000000 -2.110632 -44.555557 4.043569 -3.051289 -9.414517 -21.015990 19.337369 -9.738030 -14.197115 -13.448170 -8.508103 26.561947 -3.568478 -1.817534 -1.008372 0.000000 0.000000 0.000000 -1.730685 -47.193616 3.236004 7.816697 3.390558 -0.504222 0.925893 2.405233 -1.246767 1.015743 -1.538306 1.158749 0.000000 0.000000 0.000000 -0.098011 2.071014 -1.205554 -17.417881 1.625263 19.205570 0.183160 21.457878 -16.604912 0.000000 0.000000 0.000000 0.475960 1.766006 -1.144470 -7.077080 -6.950907 -13.186073 -6.087048 -2.522591 -3.815867 3.921909 -3.325616 -30.488578 44.085340 -39.954797 18.123975 0.000000 0.000000 0.000000 -0.202919 1.751235 -0.846537 -2.784170 14.473111 -13.043330 -4.653631 3.773465 0.192149 -65.826836 12.618660 19.086255 -78.891424 40.981647 60.777113 0.000000 0.000000 0.000000 
-0.520591 32.234463 -1.149883 0.000000 0.000000 0.000000 -1.374891 -47.874507 3.954130 -21.103837 8.256060 12.455445 21.819797 -5.092365 4.166707 -5.322481 -1.022626 -21.998151 -0.395735 1.634117 1.518393 0.000000 0.000000 0.000000 -2.108893 -46.654253 4.120435 -5.715348 -8.808791 -22.081317 21.018232 -8.470753 -14.293670 -13.212881 -8.077013 27.059437 -2.741707 -1.900212 -1.214127 0.000000 0.000000 0.000000 -1.979343 -49.359656 3.150690 8.290862 3.538862 -0.247834 1.684171 2.434761 -1.098937 1.058487 -1.570392 1.168656 0.000000 0.000000 0.000000 0.507454 2.100834 -1.090362 -18.083389 4.998705 18.836362 1.555678 23.758822 -15.899333 0.000000 0.000000 0.000000 1.236809 1.758176 -1.066455 -6.749802 -6.673625 -12.458412 -6.373794 -2.790824 -4.721394 3.244494 -3.112013 -30.699443 43.182693 -40.021015 17.897577 0.000000 0.000000 0.000000 0.461336 1.768100 -0.705350 -3.723500 14.824502 -7.104625 -3.720210 4.536114 0.504997 -57.444787 13.723351 19.214065 -81.713036 48.032950 64.478557 0.000000 0.000000 0.000000 
-0.099708 31.979719 -1.174959 0.000000 0.000000 0.000000 -1.439327 -50.099110 4.016676 -22.854004 8.132535 13.338100 24.599801 -4.287478 3.181436 -6.476910 -0.637850 -21.275971 0.188259 1.697977 1.233274 0.000000 0.000000 0.000000 -2.108123 -48.576449 4.188608 -8.423826 -8.170213 -22.920819 23.069505 -7.126899 -14.336063 -13.295638 -7.477171 27.507779 -1.836882 -1.897951 -1.497177 0.000000 0.000000 0.000000 -2.011161 -51.330381 3.176232 8.723446 3.616499 -0.058264 2.430866 2.460486 -1.038393 1.071030 -1.634159 1.141814 0.000000 0.000000 0.000000 1.119942 2.119668 -1.050655 -18.996107 8.129333 18.200508 2.608569 25.297421 -15.049232 0.000000 0.000000 0.000000 1.985117 1.745153 -1.041876 -6.478566 -6.609844 -11.693860 -6.717982 -2.964774 -5.619514 2.399675 -3.647295 -30.697630 41.283477 -39.190966 16.796229 0.000000 0.000000 0.000000 1.167405 1.787845 -0.643302 -4.651162 15.234010 -1.444177 -3.022545 4.872987 0.800094 -48.932776 14.421386 19.097899 -82.947108 54.884231 65.522039 0.000000 0.000000 0.000000 
